<?xml version="1.0" standalone="no"?>
<!DOCTYPE svg PUBLIC "-//W3C//DTD SVG 20010904//EN"
 "http://www.w3.org/TR/2001/REC-SVG-20010904/DTD/svg10.dtd">
<svg version="1.0" xmlns="http://www.w3.org/2000/svg"
 width="1244.000000pt" height="1280.000000pt" viewBox="0 0 1244.000000 1280.000000"
 preserveAspectRatio="xMidYMid meet">
<metadata>
Created by potrace 1.15, written by Peter Selinger 2001-2017
</metadata>
<g transform="translate(0.000000,1280.000000) scale(0.100000,-0.100000)"
fill="#000000" stroke="none">
<path d="M6060 12771 c-135 -27 -136 -27 -230 -93 -53 -36 -103 -74 -112 -85
-9 -10 -35 -83 -58 -163 -22 -80 -43 -153 -46 -163 -3 -9 -17 -31 -31 -47
l-25 -31 21 -137 c15 -94 33 -162 55 -217 18 -44 55 -152 82 -240 41 -135 57
-173 104 -245 l55 -85 -5 -129 -5 -130 -154 -64 c-133 -56 -179 -69 -350 -104
l-196 -39 -114 17 c-140 21 -237 16 -541 -24 -385 -52 -464 -60 -850 -92
l-375 -30 -285 38 c-263 36 -291 38 -355 27 -39 -7 -297 -54 -575 -105 l-505
-93 -380 2 c-209 1 -445 -3 -525 -8 -131 -8 -158 -14 -280 -54 -143 -48 -306
-123 -340 -157 -11 -11 -24 -20 -30 -20 -26 0 -4 -20 65 -59 55 -32 82 -42
102 -38 15 3 40 -1 55 -9 24 -12 37 -11 127 16 131 39 150 39 158 0 l6 -30
118 0 c119 0 157 5 431 61 l146 30 154 -15 c84 -9 191 -22 238 -31 285 -50
1061 -175 1092 -175 20 0 110 12 200 26 179 28 264 41 348 54 30 4 217 6 415
3 284 -3 385 -8 480 -23 464 -72 889 -140 891 -143 1 -1 21 -99 44 -217 22
-118 50 -258 60 -310 54 -269 72 -374 80 -470 6 -58 15 -157 20 -220 6 -63 15
-164 20 -225 34 -375 33 -339 5 -501 -24 -137 -71 -402 -95 -534 -25 -136 -50
-285 -69 -407 -41 -259 -63 -399 -82 -513 -17 -103 -20 -205 -30 -966 l-10
-852 31 -163 c17 -90 40 -211 51 -269 11 -58 24 -123 29 -145 5 -22 7 -78 4
-125 -2 -47 -9 -200 -14 -340 -6 -140 -15 -347 -20 -460 -5 -113 -14 -320 -20
-460 l-11 -255 30 -185 c39 -237 109 -669 167 -1020 24 -151 52 -316 60 -367
17 -100 18 -92 -46 -378 -28 -128 -81 -246 -144 -322 l-56 -67 0 -98 0 -98
344 0 343 0 7 46 c10 79 7 242 -11 460 -22 285 -22 430 5 694 12 124 35 371
52 550 17 179 40 424 51 545 26 271 27 174 -10 1365 -10 312 -13 283 99 955
75 454 88 544 140 945 12 91 30 230 40 310 10 80 22 171 26 203 7 63 18 71 94
71 76 0 87 -8 94 -71 4 -32 16 -123 26 -203 10 -80 28 -219 40 -310 52 -401
65 -491 140 -945 112 -672 109 -643 99 -955 -4 -146 -13 -418 -19 -605 -15
-491 -15 -518 9 -760 11 -121 34 -366 51 -545 17 -179 40 -426 52 -550 27
-264 27 -409 5 -694 -18 -218 -21 -381 -11 -460 l7 -46 343 0 344 0 0 98 0 98
-56 67 c-63 76 -116 194 -144 322 -64 286 -63 278 -46 378 8 51 36 218 61 372
65 398 131 800 166 1015 l30 185 -11 255 c-6 140 -15 347 -20 460 -5 113 -14
320 -20 460 -5 140 -12 293 -14 340 -3 47 0 103 5 125 4 22 22 114 39 205 17
91 40 211 51 268 20 100 20 119 10 955 -10 762 -13 864 -30 967 -19 114 -41
254 -82 513 -19 122 -45 275 -69 407 -6 30 -28 156 -50 280 -22 124 -45 252
-52 285 -16 75 -14 204 6 415 9 91 20 217 26 280 25 287 31 333 55 460 15 74
39 200 55 280 15 80 42 220 60 312 l33 166 31 6 c17 4 146 24 286 46 140 22
341 54 445 71 179 30 211 32 575 39 245 6 410 5 455 -2 86 -12 135 -19 343
-52 90 -14 180 -26 200 -26 31 0 807 125 1092 175 47 9 153 22 237 31 l152 15
148 -30 c281 -56 314 -61 432 -61 l119 0 6 30 c7 39 26 39 157 0 90 -27 103
-28 127 -16 15 8 40 12 55 9 20 -4 47 6 102 38 69 39 91 59 65 59 -5 0 -19 9
-30 20 -34 34 -197 109 -340 157 -122 40 -149 46 -280 54 -80 5 -316 9 -525 8
l-380 -2 -505 93 c-278 51 -536 98 -575 105 -64 11 -92 9 -355 -27 l-285 -38
-375 30 c-386 32 -465 40 -850 92 -304 40 -401 45 -541 24 l-114 -17 -196 39
c-171 35 -217 48 -350 104 l-154 64 -5 129 -5 129 56 87 c46 72 63 113 103
245 27 88 64 195 82 239 22 55 40 123 55 217 l21 137 -25 31 c-14 16 -28 38
-31 47 -3 10 -24 83 -46 163 -23 80 -49 153 -58 163 -9 11 -59 49 -112 85
l-95 66 -140 28 c-77 15 -149 27 -160 27 -11 0 -81 -13 -155 -28z"/>
</g>
</svg>
