<?xml version="1.0" standalone="no"?>
<!DOCTYPE svg PUBLIC "-//W3C//DTD SVG 20010904//EN"
 "http://www.w3.org/TR/2001/REC-SVG-20010904/DTD/svg10.dtd">
<svg version="1.0" xmlns="http://www.w3.org/2000/svg"
 width="1280.000000pt" height="640.000000pt" viewBox="0 0 1280.000000 640.000000"
 preserveAspectRatio="xMidYMid meet">
<metadata>
Created by potrace 1.15, written by Peter Selinger 2001-2017
</metadata>
<g transform="translate(0.000000,640.000000) scale(0.100000,-0.100000)"
fill="#000000" stroke="none">
<path d="M1740 5025 l0 -165 45 0 45 0 0 -38 c0 -39 -1 -39 -130 -125 -108
-72 -130 -84 -130 -67 0 18 -7 20 -85 20 l-85 0 0 -375 0 -375 85 0 85 0 0
324 0 323 123 82 c67 44 126 81 130 81 4 0 7 -238 7 -529 l0 -530 -52 -10
c-170 -34 -756 -138 -1158 -206 -118 -19 -233 -42 -255 -50 -55 -20 -110 -67
-143 -123 l-27 -47 -5 -410 -5 -410 -92 -3 -93 -3 0 -268 0 -268 128 -6 c70
-3 200 -3 289 0 l162 6 6 46 c33 275 170 478 400 591 114 57 189 74 320 74
126 0 203 -17 310 -68 230 -109 380 -324 410 -588 l6 -58 3200 0 3199 0 0 41
c0 71 30 181 77 278 38 79 58 107 131 180 96 95 165 140 269 176 271 94 553
29 753 -174 121 -123 191 -270 206 -431 l7 -68 1436 -4 c790 -1 1448 -1 1464
1 l27 3 0 269 0 269 -25 0 -25 0 0 1278 0 1278 -29 60 c-35 71 -89 125 -156
156 l-50 23 -5387 3 -5388 2 0 -165z"/>
<path d="M1230 2474 c-97 -16 -145 -31 -219 -66 -151 -72 -276 -222 -327 -393
-25 -82 -25 -258 0 -340 46 -154 172 -314 301 -382 234 -123 507 -99 703 62
105 87 184 209 217 340 20 78 19 222 -1 304 -42 170 -171 333 -324 411 -89 45
-268 78 -350 64z"/>
<path d="M9100 2474 c-97 -16 -145 -31 -219 -66 -117 -56 -221 -159 -280 -279
-58 -116 -80 -243 -64 -357 23 -155 77 -264 184 -373 263 -266 706 -239 937
56 51 65 97 156 116 232 21 79 21 237 0 317 -52 202 -217 378 -413 440 -74 23
-209 39 -261 30z"/>
</g>
</svg>
