<?xml version="1.0" standalone="no"?>
<!DOCTYPE svg PUBLIC "-//W3C//DTD SVG 20010904//EN"
 "http://www.w3.org/TR/2001/REC-SVG-20010904/DTD/svg10.dtd">
<svg version="1.0" xmlns="http://www.w3.org/2000/svg"
 width="761.000000pt" height="1280.000000pt" viewBox="0 0 761.000000 1280.000000"
 preserveAspectRatio="xMidYMid meet">
<metadata>
Created by potrace 1.15, written by Peter Selinger 2001-2017
</metadata>
<g transform="translate(0.000000,1280.000000) scale(0.100000,-0.100000)"
fill="#000000" stroke="none">
<path d="M4565 12793 c-236 -2 -968 -7 -1627 -11 l-1196 -9 -78 -37 c-146 -69
-273 -226 -404 -499 -76 -158 -127 -296 -170 -464 l-29 -112 -27 -1021 -27
-1021 33 -112 c19 -62 57 -173 86 -247 197 -512 421 -904 591 -1032 50 -38 57
-40 195 -59 362 -49 814 -89 1237 -109 118 -5 217 -12 220 -16 3 -3 7 -87 8
-187 2 -100 8 -465 13 -811 6 -346 9 -630 8 -631 -2 -2 -532 41 -1178 95
-1288 108 -1194 105 -1297 45 -62 -37 -175 -145 -217 -209 -47 -73 -76 -152
-83 -224 l-6 -62 124 -206 c116 -193 130 -212 229 -307 168 -162 380 -312 485
-343 44 -12 156 -14 753 -12 385 2 698 0 694 -4 -4 -3 -61 -36 -128 -71 -66
-36 -156 -86 -200 -112 -134 -80 -214 -116 -254 -117 -21 0 -64 10 -96 23 -53
21 -75 24 -204 23 -320 0 -526 -97 -440 -207 24 -30 85 -51 200 -69 117 -18
613 -18 695 0 97 21 182 52 222 79 21 15 160 91 308 170 149 80 303 163 344
185 l74 40 -7 -413 c-4 -228 -11 -555 -16 -728 -5 -190 -5 -350 1 -405 6 -63
6 -92 -2 -96 -6 -4 -76 -10 -157 -14 -308 -14 -670 -55 -1027 -116 -1109 -189
-1854 -550 -2056 -996 -38 -84 -50 -143 -50 -244 1 -122 40 -238 118 -345 l29
-39 -73 -70 c-165 -156 -223 -398 -149 -619 58 -173 173 -293 341 -357 77 -29
221 -32 306 -6 167 50 300 184 362 363 24 72 28 99 28 192 0 90 -4 122 -25
185 -45 133 -125 238 -236 312 -40 27 -42 29 -36 68 4 23 21 70 38 106 39 80
187 232 297 305 312 205 803 377 1356 474 66 12 132 24 148 27 22 5 5 -16 -89
-108 -314 -306 -551 -598 -644 -789 -43 -90 -53 -132 -69 -300 -14 -147 -14
-234 0 -298 10 -46 9 -54 -13 -88 -126 -203 -151 -584 -57 -870 50 -152 141
-238 251 -237 34 0 66 7 81 17 23 15 27 14 72 -9 118 -59 237 0 310 154 110
231 109 643 -1 877 -38 80 -108 150 -168 167 l-46 14 76 74 c96 94 151 158
199 235 83 132 457 569 784 916 l156 167 6 -172 c3 -94 9 -181 13 -192 6 -15
-2 -39 -26 -80 l-33 -59 0 -275 0 -275 30 -54 c34 -62 78 -101 155 -139 47
-23 68 -27 140 -27 71 0 94 4 141 26 76 36 133 90 164 154 25 53 25 56 25 313
0 275 -3 296 -52 362 -17 24 -18 32 -9 66 6 21 11 120 11 219 l0 179 56 -54
c259 -254 825 -906 950 -1094 37 -55 109 -143 160 -196 93 -96 94 -97 67 -103
-71 -14 -152 -105 -193 -216 -45 -119 -55 -195 -54 -406 1 -172 4 -211 22
-280 49 -179 130 -291 231 -315 48 -11 105 -4 140 19 9 6 29 1 59 -15 115 -61
240 3 313 160 59 127 84 287 76 486 -8 196 -41 329 -108 434 -17 28 -28 55
-24 65 34 89 10 482 -36 592 -77 183 -262 420 -581 744 l-237 241 97 -13 c661
-90 1261 -281 1617 -515 157 -103 296 -259 330 -370 l13 -44 -52 -18 c-120
-42 -240 -150 -302 -269 -64 -123 -81 -301 -43 -437 70 -253 270 -414 514
-414 202 0 378 112 470 299 54 108 68 182 62 305 -7 144 -43 243 -125 345
l-39 49 48 60 c169 209 202 440 95 662 -231 480 -1134 866 -2406 1029 -297 38
-766 75 -959 75 l-84 0 7 50 c10 72 8 345 -3 620 -6 129 -13 414 -17 632 l-7
398 966 0 c915 0 969 1 1015 18 67 26 114 59 365 260 l217 175 127 210 126
211 -10 74 c-17 114 -68 209 -167 308 -81 81 -146 126 -215 150 -39 13 31 18
-1486 -106 -203 -17 -493 -41 -642 -53 l-273 -23 0 102 c0 55 5 193 11 305 5
112 13 432 17 711 4 279 11 510 15 514 4 4 92 11 195 16 442 19 1199 92 1347
129 54 14 132 97 215 230 127 203 389 753 495 1037 57 154 55 102 55 1104 0
1000 0 1009 -55 1279 -99 490 -270 807 -495 917 l-75 37 -415 0 c-228 1 -608
-1 -845 -2z"/>
</g>
</svg>
