<?xml version="1.0" encoding="UTF-8"?><svg id="Layer_2" xmlns="http://www.w3.org/2000/svg" viewBox="0 0 983.8 983.8"><g id="Layer_1-2"><path d="M491.9,0C220.23,0,0,220.23,0,491.9s220.23,491.9,491.9,491.9,491.9-220.23,491.9-491.9S763.57,0,491.9,0Zm-107.4,589.8v74.26H117.55l156.87-185.76c9.55-11.3,16.59-21.53,21.13-30.68,4.54-9.15,6.8-17.71,6.8-25.67,0-12.26-3.86-22.24-11.58-29.97-7.72-7.72-17.87-11.58-30.44-11.58-14.96,0-26.47,4.78-34.5,14.33-8.04,9.55-12.06,23.4-12.06,41.55v4.3h-84.05v-2.39c0-39.64,11.58-70.83,34.74-93.6,23.16-22.76,54.8-34.14,94.91-34.14s70.35,10.11,93.6,30.32c23.24,20.22,34.86,47.12,34.86,80.7,0,16.4-3.66,32.35-10.98,47.87-7.32,15.52-19.42,32.51-36.29,50.98l-63.03,69.48h106.97Zm270.64,49.9c-25.55,22.44-60.53,33.67-104.94,33.67-21.17,0-40.91-2.39-59.21-7.16-18.31-4.77-34.38-11.7-48.23-20.77l6.21-84.52,7.4,1.43c8.6,12.89,20.06,23.04,34.38,30.44,14.33,7.4,29.76,11.1,46.32,11.1,22.12,0,39.24-5.29,51.34-15.88,12.1-10.58,18.15-25.51,18.15-44.77s-6.53-33.58-19.58-45.37c-13.05-11.78-30.01-17.67-50.86-17.67-14.01,0-26.66,2.35-37.96,7.04-11.3,4.7-21.49,11.82-30.56,21.37l-11.7-6.92,28.89-183.85h190.3v71.39h-132.52l-6.92,44.89c7.16-1.59,14.36-2.78,21.61-3.58,7.24-.79,14.36-1.19,21.37-1.19,35.49,0,63.51,10.62,84.05,31.88,20.53,21.25,30.8,50.1,30.8,86.55,0,38.84-12.77,69.48-38.32,91.93Zm152.98-121.23c6.8,7.28,16,10.91,27.6,10.91,5.9,0,11.31-1.11,16.21-3.32,4.9-2.21,9.67-5.75,14.31-10.6v48.87c-5.8,2.95-11.47,5.27-17,6.96-5.54,1.69-10.99,2.74-16.37,3.16v32.11h-18.19v-32.11c-23.72-4.43-41.67-13.81-53.85-28.15-12.18-14.34-18.27-33.37-18.27-57.09s6.41-42.04,19.22-57.17c12.81-15.13,30.44-24.43,52.9-27.91v-26.89h18.19v26.57c6.22,.63,12.1,1.77,17.63,3.4,5.54,1.64,10.78,3.82,15.74,6.56v47.92c-5.69-4.95-11.07-8.56-16.13-10.83-5.06-2.27-10.28-3.4-15.66-3.4-11.18,0-20.06,3.72-26.65,11.15-6.59,7.43-9.88,17.53-9.88,30.29s3.4,22.3,10.2,29.57Z"/></g></svg>